<svg width="18" height="17" viewBox="0 0 18 17" fill="none" xmlns="http://www.w3.org/2000/svg">
<path fill-rule="evenodd" clip-rule="evenodd" d="M6.50003 1.49996C6.50003 1.27895 6.58783 1.06698 6.74411 0.910704C6.90039 0.754423 7.11235 0.666626 7.33336 0.666626H10.6667C10.8877 0.666626 11.0997 0.754423 11.256 0.910704C11.4122 1.06698 11.5 1.27895 11.5 1.49996V3.16663H14C14.123 3.16667 14.2444 3.19394 14.3556 3.24646C14.4668 3.29898 14.565 3.37546 14.6431 3.47041C14.7213 3.56536 14.7775 3.67643 14.8076 3.79565C14.8377 3.91486 14.8411 4.03928 14.8175 4.15996L14.4534 6.02496L13.3475 5.77913L9.18086 4.85329C9.06176 4.82682 8.9383 4.82682 8.8192 4.85329L4.65253 5.77829L3.5467 6.02496L3.18253 4.15996C3.15892 4.03928 3.16231 3.91486 3.19246 3.79565C3.22261 3.67643 3.27877 3.56536 3.35691 3.47041C3.43506 3.37546 3.53324 3.29898 3.64443 3.24646C3.75562 3.19394 3.87706 3.16667 4.00003 3.16663H6.50003V1.49996ZM1.42336 8.16329L1.3192 8.18663C1.19565 8.21416 1.08001 8.26948 0.981035 8.34838C0.882062 8.42728 0.802362 8.52769 0.747984 8.64199C0.693606 8.75629 0.665979 8.88147 0.6672 9.00804C0.668421 9.1346 0.698458 9.25923 0.75503 9.37246L2.4217 12.7058C2.49984 12.8621 2.62517 12.99 2.77996 13.0712C2.93474 13.1524 3.11114 13.1829 3.2842 13.1583L9.00003 12.3416L14.7159 13.1583C14.8889 13.1829 15.0653 13.1524 15.2201 13.0712C15.3749 12.99 15.5002 12.8621 15.5784 12.7058L17.245 9.37246C17.3016 9.25923 17.3316 9.1346 17.3329 9.00804C17.3341 8.88147 17.3065 8.75629 17.2521 8.64199C17.1977 8.52769 17.118 8.42728 17.019 8.34838C16.9201 8.26948 16.8044 8.21416 16.6809 8.18663L16.5767 8.16329C16.4905 8.17114 16.4036 8.16552 16.3192 8.14663L12.9859 7.40579L9.00003 6.51996L5.0142 7.40579L1.68086 8.14746C1.59637 8.16607 1.5095 8.17141 1.42336 8.16329ZM6.72336 14.5041C7.00736 14.1796 7.35746 13.9195 7.75018 13.7413C8.14291 13.5631 8.56919 13.4709 9.00045 13.4709C9.43171 13.4709 9.85799 13.5631 10.2507 13.7413C10.6434 13.9195 10.9935 14.1796 11.2775 14.5041L11.3067 14.5375C11.5157 14.7765 11.8045 14.9315 12.1193 14.9733C12.4341 15.0152 12.7533 14.9411 13.0175 14.765C13.419 14.4975 13.8794 14.3316 14.3592 14.2817C14.839 14.2317 15.3238 14.2992 15.7717 14.4783L16.8092 14.8925C17.011 14.9768 17.1716 15.1371 17.2563 15.3388C17.3409 15.5405 17.3429 15.7674 17.2617 15.9706C17.1806 16.1737 17.0228 16.3368 16.8224 16.4246C16.6221 16.5124 16.3952 16.5179 16.1909 16.44L15.1534 16.025C14.9563 15.9462 14.743 15.9166 14.5319 15.9387C14.3208 15.9607 14.1182 16.0338 13.9417 16.1516C13.3411 16.552 12.6154 16.7203 11.8999 16.6252C11.1844 16.5302 10.5278 16.1782 10.0525 15.635L10.0234 15.6016C9.89579 15.4557 9.73847 15.3387 9.56197 15.2586C9.38548 15.1784 9.19387 15.137 9.00003 15.137C8.80619 15.137 8.61458 15.1784 8.43808 15.2586C8.26158 15.3387 8.10427 15.4557 7.9767 15.6016L7.94753 15.635C7.47227 16.1782 6.81571 16.5302 6.10018 16.6252C5.38466 16.7203 4.65898 16.552 4.05836 16.1516C3.88182 16.0338 3.67927 15.9607 3.46817 15.9387C3.25708 15.9166 3.04379 15.9462 2.8467 16.025L1.8092 16.44C1.70721 16.4826 1.59776 16.5045 1.48722 16.5044C1.37669 16.5043 1.26727 16.4822 1.16535 16.4395C1.06343 16.3967 0.971035 16.334 0.893551 16.2552C0.816068 16.1764 0.755043 16.0829 0.714029 15.9803C0.673015 15.8776 0.652832 15.7678 0.654654 15.6573C0.656477 15.5468 0.68027 15.4377 0.724646 15.3365C0.769023 15.2353 0.833097 15.1439 0.913138 15.0676C0.993178 14.9914 1.08759 14.9319 1.19086 14.8925L2.22836 14.4783C2.67628 14.2992 3.16103 14.2317 3.64083 14.2817C4.12063 14.3316 4.58109 14.4975 4.98253 14.765C5.24674 14.9411 5.566 15.0152 5.88078 14.9733C6.19556 14.9315 6.48437 14.7765 6.69336 14.5375L6.72336 14.5041Z" fill="#BD0007"/>
</svg>
